<svg xmlns="http://www.w3.org/2000/svg" viewBox="0 0 800 200">
  <defs>
    <linearGradient id="bg" x1="0%" y1="0%" x2="100%" y2="100%">
      <stop offset="0%" style="stop-color:#1B3A4B;stop-opacity:1" />
      <stop offset="100%" style="stop-color:#065A60;stop-opacity:1" />
    </linearGradient>
    <linearGradient id="accent" x1="0%" y1="0%" x2="100%" y2="0%">
      <stop offset="0%" style="stop-color:#2EC4B6;stop-opacity:1" />
      <stop offset="100%" style="stop-color:#20A4F3;stop-opacity:1" />
    </linearGradient>
  </defs>
  <rect width="800" height="200" rx="12" fill="url(#bg)"/>
  <!-- Building icons -->
  <g opacity="0.15">
    <rect x="30" y="60" width="28" height="120" rx="2" fill="#fff"/>
    <rect x="34" y="68" width="8" height="8" rx="1" fill="#1B3A4B"/>
    <rect x="46" y="68" width="8" height="8" rx="1" fill="#1B3A4B"/>
    <rect x="34" y="82" width="8" height="8" rx="1" fill="#1B3A4B"/>
    <rect x="46" y="82" width="8" height="8" rx="1" fill="#1B3A4B"/>
    <rect x="34" y="96" width="8" height="8" rx="1" fill="#1B3A4B"/>
    <rect x="46" y="96" width="8" height="8" rx="1" fill="#1B3A4B"/>
    <rect x="34" y="110" width="8" height="8" rx="1" fill="#1B3A4B"/>
    <rect x="46" y="110" width="8" height="8" rx="1" fill="#1B3A4B"/>
    <rect x="34" y="124" width="8" height="8" rx="1" fill="#1B3A4B"/>
    <rect x="46" y="124" width="8" height="8" rx="1" fill="#1B3A4B"/>

    <rect x="68" y="40" width="35" height="140" rx="2" fill="#fff"/>
    <rect x="73" y="48" width="8" height="8" rx="1" fill="#1B3A4B"/>
    <rect x="85" y="48" width="8" height="8" rx="1" fill="#1B3A4B"/>
    <rect x="73" y="62" width="8" height="8" rx="1" fill="#1B3A4B"/>
    <rect x="85" y="62" width="8" height="8" rx="1" fill="#1B3A4B"/>
    <rect x="73" y="76" width="8" height="8" rx="1" fill="#1B3A4B"/>
    <rect x="85" y="76" width="8" height="8" rx="1" fill="#1B3A4B"/>
    <rect x="73" y="90" width="8" height="8" rx="1" fill="#1B3A4B"/>
    <rect x="85" y="90" width="8" height="8" rx="1" fill="#1B3A4B"/>
    <rect x="73" y="104" width="8" height="8" rx="1" fill="#1B3A4B"/>
    <rect x="85" y="104" width="8" height="8" rx="1" fill="#1B3A4B"/>
    <rect x="73" y="118" width="8" height="8" rx="1" fill="#1B3A4B"/>
    <rect x="85" y="118" width="8" height="8" rx="1" fill="#1B3A4B"/>

    <rect x="113" y="80" width="24" height="100" rx="2" fill="#fff"/>
    <rect x="117" y="88" width="7" height="7" rx="1" fill="#1B3A4B"/>
    <rect x="126" y="88" width="7" height="7" rx="1" fill="#1B3A4B"/>
    <rect x="117" y="100" width="7" height="7" rx="1" fill="#1B3A4B"/>
    <rect x="126" y="100" width="7" height="7" rx="1" fill="#1B3A4B"/>
    <rect x="117" y="112" width="7" height="7" rx="1" fill="#1B3A4B"/>
    <rect x="126" y="112" width="7" height="7" rx="1" fill="#1B3A4B"/>
  </g>
  <!-- Right side buildings -->
  <g opacity="0.15">
    <rect x="670" y="50" width="30" height="130" rx="2" fill="#fff"/>
    <rect x="674" y="58" width="8" height="8" rx="1" fill="#1B3A4B"/>
    <rect x="686" y="58" width="8" height="8" rx="1" fill="#1B3A4B"/>
    <rect x="674" y="72" width="8" height="8" rx="1" fill="#1B3A4B"/>
    <rect x="686" y="72" width="8" height="8" rx="1" fill="#1B3A4B"/>
    <rect x="674" y="86" width="8" height="8" rx="1" fill="#1B3A4B"/>
    <rect x="686" y="86" width="8" height="8" rx="1" fill="#1B3A4B"/>
    <rect x="674" y="100" width="8" height="8" rx="1" fill="#1B3A4B"/>
    <rect x="686" y="100" width="8" height="8" rx="1" fill="#1B3A4B"/>
    <rect x="674" y="114" width="8" height="8" rx="1" fill="#1B3A4B"/>
    <rect x="686" y="114" width="8" height="8" rx="1" fill="#1B3A4B"/>

    <rect x="710" y="30" width="36" height="150" rx="2" fill="#fff"/>
    <rect x="715" y="38" width="9" height="9" rx="1" fill="#1B3A4B"/>
    <rect x="728" y="38" width="9" height="9" rx="1" fill="#1B3A4B"/>
    <rect x="715" y="53" width="9" height="9" rx="1" fill="#1B3A4B"/>
    <rect x="728" y="53" width="9" height="9" rx="1" fill="#1B3A4B"/>
    <rect x="715" y="68" width="9" height="9" rx="1" fill="#1B3A4B"/>
    <rect x="728" y="68" width="9" height="9" rx="1" fill="#1B3A4B"/>
    <rect x="715" y="83" width="9" height="9" rx="1" fill="#1B3A4B"/>
    <rect x="728" y="83" width="9" height="9" rx="1" fill="#1B3A4B"/>
    <rect x="715" y="98" width="9" height="9" rx="1" fill="#1B3A4B"/>
    <rect x="728" y="98" width="9" height="9" rx="1" fill="#1B3A4B"/>
    <rect x="715" y="113" width="9" height="9" rx="1" fill="#1B3A4B"/>
    <rect x="728" y="113" width="9" height="9" rx="1" fill="#1B3A4B"/>

    <rect x="756" y="70" width="26" height="110" rx="2" fill="#fff"/>
    <rect x="760" y="78" width="7" height="7" rx="1" fill="#1B3A4B"/>
    <rect x="771" y="78" width="7" height="7" rx="1" fill="#1B3A4B"/>
    <rect x="760" y="91" width="7" height="7" rx="1" fill="#1B3A4B"/>
    <rect x="771" y="91" width="7" height="7" rx="1" fill="#1B3A4B"/>
    <rect x="760" y="104" width="7" height="7" rx="1" fill="#1B3A4B"/>
    <rect x="771" y="104" width="7" height="7" rx="1" fill="#1B3A4B"/>
  </g>
  <!-- Ground line -->
  <rect x="0" y="178" width="800" height="2" fill="url(#accent)" opacity="0.4"/>
  <!-- Terminal icon -->
  <rect x="280" y="28" width="44" height="34" rx="5" fill="#0D1117" stroke="#2EC4B6" stroke-width="1.5"/>
  <text x="288" y="50" font-family="monospace" font-size="14" fill="#2EC4B6">$_</text>
  <!-- Title -->
  <text x="335" y="52" font-family="system-ui, -apple-system, sans-serif" font-size="28" font-weight="700" fill="#ffffff">cli-anything-naver-land</text>
  <!-- Subtitle -->
  <text x="400" y="85" font-family="system-ui, -apple-system, sans-serif" font-size="15" fill="#94A3B8" text-anchor="middle">Real Estate Search from Your Terminal</text>
  <!-- Tagline -->
  <text x="400" y="115" font-family="system-ui, -apple-system, sans-serif" font-size="13" fill="#2EC4B6" text-anchor="middle" opacity="0.9">17 Provinces  |  248 Districts  |  Natural Language  |  ~15s Search</text>
  <!-- Feature pills -->
  <rect x="155" y="135" width="90" height="28" rx="14" fill="#2EC4B6" opacity="0.15"/>
  <text x="200" y="154" font-family="system-ui, sans-serif" font-size="11" fill="#2EC4B6" text-anchor="middle" font-weight="600">NLQ Search</text>
  <rect x="260" y="135" width="100" height="28" rx="14" fill="#2EC4B6" opacity="0.15"/>
  <text x="310" y="154" font-family="system-ui, sans-serif" font-size="11" fill="#2EC4B6" text-anchor="middle" font-weight="600">High-Speed</text>
  <rect x="375" y="135" width="80" height="28" rx="14" fill="#2EC4B6" opacity="0.15"/>
  <text x="415" y="154" font-family="system-ui, sans-serif" font-size="11" fill="#2EC4B6" text-anchor="middle" font-weight="600">Filters</text>
  <rect x="470" y="135" width="90" height="28" rx="14" fill="#2EC4B6" opacity="0.15"/>
  <text x="515" y="154" font-family="system-ui, sans-serif" font-size="11" fill="#2EC4B6" text-anchor="middle" font-weight="600">Export</text>
  <rect x="575" y="135" width="80" height="28" rx="14" fill="#2EC4B6" opacity="0.15"/>
  <text x="615" y="154" font-family="system-ui, sans-serif" font-size="11" fill="#2EC4B6" text-anchor="middle" font-weight="600">REPL</text>
</svg>
